<svg width="185" height="13" viewBox="0 0 185 13" fill="none" xmlns="http://www.w3.org/2000/svg">
<path opacity="0.65" d="M5.79794 10.112C5.07927 10.112 4.41194 9.986 3.79594 9.734C3.18927 9.482 2.6526 9.12733 2.18594 8.67C1.7286 8.20333 1.37394 7.66667 1.12194 7.06C0.869938 6.444 0.743938 5.77667 0.743938 5.058C0.743938 4.33933 0.869938 3.67667 1.12194 3.07C1.37394 2.454 1.7286 1.91733 2.18594 1.46C2.64327 1.00267 3.17994 0.647999 3.79594 0.395999C4.41194 0.143999 5.07927 0.0179992 5.79794 0.0179992C6.5166 0.0179992 7.17927 0.143999 7.78594 0.395999C8.40194 0.647999 8.9386 1.00267 9.39594 1.46C9.85327 1.91733 10.2079 2.454 10.4599 3.07C10.7119 3.67667 10.8379 4.33933 10.8379 5.058C10.8379 5.77667 10.7119 6.444 10.4599 7.06C10.2079 7.66667 9.85327 8.20333 9.39594 8.67C8.9386 9.12733 8.40194 9.482 7.78594 9.734C7.17927 9.986 6.5166 10.112 5.79794 10.112ZM5.79794 9.566C6.4326 9.566 7.0206 9.454 7.56194 9.23C8.10327 8.99667 8.5746 8.67467 8.97594 8.264C9.3866 7.85333 9.70394 7.37733 9.92794 6.836C10.1519 6.28533 10.2639 5.69267 10.2639 5.058C10.2639 4.42333 10.1519 3.83533 9.92794 3.294C9.70394 2.74333 9.3866 2.26733 8.97594 1.866C8.5746 1.45533 8.10327 1.138 7.56194 0.913999C7.0206 0.680666 6.4326 0.564 5.79794 0.564C5.16327 0.564 4.5706 0.680666 4.01994 0.913999C3.4786 1.138 3.0026 1.45533 2.59194 1.866C2.1906 2.26733 1.87794 2.74333 1.65394 3.294C1.42994 3.83533 1.31794 4.42333 1.31794 5.058C1.31794 5.69267 1.42994 6.28533 1.65394 6.836C1.87794 7.37733 2.1906 7.85333 2.59194 8.264C3.0026 8.67467 3.4786 8.99667 4.01994 9.23C4.5706 9.454 5.16327 9.566 5.79794 9.566ZM5.95194 8.082C5.06527 8.082 4.36527 7.802 3.85194 7.242C3.34794 6.682 3.09594 5.94 3.09594 5.016C3.09594 4.10133 3.34794 3.378 3.85194 2.846C4.36527 2.314 5.06527 2.048 5.95194 2.048C6.28794 2.048 6.61927 2.10867 6.94594 2.23C7.2726 2.342 7.55727 2.496 7.79994 2.692C7.91194 2.78533 7.9586 2.89267 7.93994 3.014C7.92127 3.126 7.8606 3.21 7.75794 3.266C7.6646 3.322 7.54327 3.30333 7.39394 3.21C7.1606 3.03267 6.91794 2.91133 6.66594 2.846C6.42327 2.77133 6.18994 2.734 5.96594 2.734C5.3126 2.734 4.79927 2.93467 4.42594 3.336C4.06194 3.73733 3.87994 4.302 3.87994 5.03C3.87994 5.758 4.06194 6.33667 4.42594 6.766C4.79927 7.186 5.3126 7.396 5.96594 7.396C6.19927 7.396 6.43727 7.35867 6.67994 7.284C6.93194 7.20933 7.1746 7.08333 7.40794 6.906C7.54794 6.80333 7.6646 6.78467 7.75794 6.85C7.8606 6.906 7.92127 6.99467 7.93994 7.116C7.9586 7.23733 7.91194 7.34 7.79994 7.424C7.54794 7.62933 7.2586 7.79267 6.93194 7.914C6.60527 8.026 6.2786 8.082 5.95194 8.082ZM20.4333 10.112C19.4906 10.112 18.6833 9.91133 18.0113 9.51C17.3393 9.09933 16.8213 8.516 16.4573 7.76C16.1026 7.004 15.9253 6.10333 15.9253 5.058C15.9253 4.022 16.1026 3.126 16.4573 2.37C16.8213 1.614 17.3393 1.03533 18.0113 0.634C18.6833 0.223333 19.4906 0.0179992 20.4333 0.0179992C21.0493 0.0179992 21.6233 0.111333 22.1553 0.298C22.6873 0.475333 23.1446 0.732 23.5273 1.068C23.686 1.19867 23.756 1.34333 23.7373 1.502C23.7186 1.65133 23.644 1.75867 23.5133 1.824C23.3826 1.88933 23.2333 1.85667 23.0653 1.726C22.356 1.11933 21.4833 0.816 20.4473 0.816C19.29 0.816 18.3986 1.18933 17.7733 1.936C17.1573 2.67333 16.8493 3.714 16.8493 5.058C16.8493 6.41133 17.1573 7.46133 17.7733 8.208C18.3986 8.94533 19.29 9.314 20.4473 9.314C21.474 9.314 22.3513 9.006 23.0793 8.39C23.2473 8.25933 23.392 8.22667 23.5133 8.292C23.644 8.35733 23.7186 8.46467 23.7373 8.614C23.7653 8.76333 23.7093 8.89867 23.5693 9.02C22.7573 9.748 21.712 10.112 20.4333 10.112ZM27.738 10.112C27.1033 10.112 26.5527 9.972 26.086 9.692C25.6193 9.40267 25.2553 8.99667 24.994 8.474C24.742 7.942 24.616 7.31667 24.616 6.598C24.616 5.88867 24.742 5.27267 24.994 4.75C25.2553 4.218 25.6193 3.80733 26.086 3.518C26.5527 3.22867 27.1033 3.084 27.738 3.084C28.382 3.084 28.9373 3.22867 29.404 3.518C29.8707 3.80733 30.23 4.218 30.482 4.75C30.7433 5.27267 30.874 5.88867 30.874 6.598C30.874 7.31667 30.7433 7.942 30.482 8.474C30.23 8.99667 29.8707 9.40267 29.404 9.692C28.9373 9.972 28.382 10.112 27.738 10.112ZM27.738 9.398C28.4287 9.398 28.9793 9.15533 29.39 8.67C29.8007 8.17533 30.006 7.48467 30.006 6.598C30.006 5.71133 29.8007 5.02533 29.39 4.54C28.9793 4.05467 28.4287 3.812 27.738 3.812C27.0473 3.812 26.4967 4.05467 26.086 4.54C25.6847 5.02533 25.484 5.71133 25.484 6.598C25.484 7.48467 25.6847 8.17533 26.086 8.67C26.4967 9.15533 27.0473 9.398 27.738 9.398ZM33.1263 12.604C32.8369 12.604 32.6923 12.4593 32.6923 12.17V3.56C32.6923 3.26133 32.8369 3.112 33.1263 3.112C33.4063 3.112 33.5463 3.26133 33.5463 3.56V4.484C33.7516 4.05467 34.0596 3.714 34.4703 3.462C34.8903 3.21 35.3756 3.084 35.9263 3.084C36.5329 3.084 37.0603 3.22867 37.5083 3.518C37.9656 3.80733 38.3156 4.21333 38.5583 4.736C38.8103 5.25867 38.9363 5.87933 38.9363 6.598C38.9363 7.31667 38.8103 7.942 38.5583 8.474C38.3156 8.99667 37.9656 9.40267 37.5083 9.692C37.0603 9.972 36.5329 10.112 35.9263 10.112C35.3756 10.112 34.8903 9.99067 34.4703 9.748C34.0596 9.50533 33.7516 9.16933 33.5463 8.74V12.17C33.5463 12.4593 33.4063 12.604 33.1263 12.604ZM35.8003 9.398C36.4909 9.398 37.0416 9.15533 37.4523 8.67C37.8629 8.17533 38.0683 7.48467 38.0683 6.598C38.0683 5.71133 37.8629 5.02533 37.4523 4.54C37.0416 4.05467 36.4909 3.812 35.8003 3.812C35.1096 3.812 34.5589 4.05467 34.1483 4.54C33.7376 5.02533 33.5323 5.71133 33.5323 6.598C33.5323 7.48467 33.7376 8.17533 34.1483 8.67C34.5589 9.15533 35.1096 9.398 35.8003 9.398ZM42.091 12.604C41.9136 12.604 41.797 12.5387 41.741 12.408C41.6943 12.2867 41.7036 12.142 41.769 11.974L42.651 9.972L39.991 3.756C39.9163 3.588 39.9116 3.43867 39.977 3.308C40.0423 3.17733 40.173 3.112 40.369 3.112C40.565 3.112 40.7096 3.22867 40.803 3.462L43.113 9.062L45.437 3.462C45.493 3.33133 45.5536 3.24267 45.619 3.196C45.6843 3.14 45.7776 3.112 45.899 3.112C46.0763 3.112 46.1883 3.17733 46.235 3.308C46.291 3.43867 46.2863 3.58333 46.221 3.742L42.567 12.268C42.455 12.492 42.2963 12.604 42.091 12.604ZM48.22 10.084C47.9307 10.084 47.786 9.93933 47.786 9.65V3.56C47.786 3.26133 47.9307 3.112 48.22 3.112C48.4907 3.112 48.626 3.26133 48.626 3.56V4.442C48.8313 4.00333 49.1347 3.66733 49.536 3.434C49.9467 3.20067 50.418 3.07933 50.95 3.07C51.062 3.06067 51.1553 3.084 51.23 3.14C51.3047 3.196 51.342 3.28467 51.342 3.406C51.3513 3.66733 51.216 3.812 50.936 3.84L50.74 3.854C50.0773 3.91 49.564 4.12933 49.2 4.512C48.836 4.88533 48.654 5.38933 48.654 6.024V9.65C48.654 9.93933 48.5093 10.084 48.22 10.084ZM53.0052 1.46C52.5945 1.46 52.3892 1.264 52.3892 0.872C52.3892 0.489333 52.5945 0.298 53.0052 0.298C53.4158 0.298 53.6212 0.489333 53.6212 0.872C53.6212 1.264 53.4158 1.46 53.0052 1.46ZM53.0052 10.056C52.7158 10.056 52.5712 9.902 52.5712 9.594V3.602C52.5712 3.30333 52.7158 3.154 53.0052 3.154C53.2852 3.154 53.4252 3.30333 53.4252 3.602V9.594C53.4252 9.902 53.2852 10.056 53.0052 10.056ZM58.6287 12.632C58.1247 12.632 57.6347 12.5667 57.1587 12.436C56.692 12.3147 56.2674 12.114 55.8847 11.834C55.754 11.75 55.698 11.6427 55.7167 11.512C55.7354 11.3813 55.796 11.274 55.8987 11.19C56.0014 11.1153 56.1134 11.1153 56.2347 11.19C56.6547 11.47 57.0467 11.6613 57.4107 11.764C57.784 11.8667 58.1807 11.918 58.6007 11.918C59.282 11.918 59.8 11.7313 60.1547 11.358C60.5094 10.9847 60.6867 10.4433 60.6867 9.734V8.418C60.4907 8.866 60.178 9.216 59.7487 9.468C59.3287 9.72 58.848 9.846 58.3067 9.846C57.672 9.846 57.126 9.706 56.6687 9.426C56.2207 9.13667 55.8707 8.74 55.6187 8.236C55.376 7.72267 55.2547 7.13 55.2547 6.458C55.2547 5.786 55.376 5.198 55.6187 4.694C55.8707 4.19 56.2207 3.798 56.6687 3.518C57.126 3.22867 57.672 3.084 58.3067 3.084C58.848 3.084 59.324 3.21 59.7347 3.462C60.1547 3.70467 60.4674 4.04533 60.6727 4.484V3.56C60.6727 3.26133 60.8127 3.112 61.0927 3.112C61.3727 3.112 61.5127 3.26133 61.5127 3.56V9.608C61.5127 11.624 60.5514 12.632 58.6287 12.632ZM58.4047 9.118C59.1047 9.118 59.66 8.88 60.0707 8.404C60.4814 7.91867 60.6867 7.27 60.6867 6.458C60.6867 5.646 60.4814 5.002 60.0707 4.526C59.66 4.05 59.1047 3.812 58.4047 3.812C57.6954 3.812 57.1354 4.05 56.7247 4.526C56.3234 5.002 56.1227 5.646 56.1227 6.458C56.1227 7.27 56.3234 7.91867 56.7247 8.404C57.1354 8.88 57.6954 9.118 58.4047 9.118ZM64.2024 10.084C63.9131 10.084 63.7684 9.93933 63.7684 9.65V0.48C63.7684 0.190666 63.9131 0.0459996 64.2024 0.0459996C64.4824 0.0459996 64.6224 0.190666 64.6224 0.48V4.386C64.8558 3.95667 65.1778 3.63467 65.5884 3.42C66.0084 3.196 66.4704 3.084 66.9744 3.084C68.5891 3.084 69.3964 3.96133 69.3964 5.716V9.65C69.3964 9.93933 69.2564 10.084 68.9764 10.084C68.6871 10.084 68.5424 9.93933 68.5424 9.65V5.786C68.5424 5.114 68.4071 4.61933 68.1364 4.302C67.8658 3.98467 67.4364 3.826 66.8484 3.826C66.1764 3.826 65.6351 4.036 65.2244 4.456C64.8231 4.86667 64.6224 5.422 64.6224 6.122V9.65C64.6224 9.93933 64.4824 10.084 64.2024 10.084ZM74.1644 10.112C73.4084 10.112 72.8391 9.90667 72.4564 9.496C72.0831 9.08533 71.8964 8.49733 71.8964 7.732V3.896H70.8604C70.5898 3.896 70.4544 3.77933 70.4544 3.546C70.4544 3.322 70.5898 3.21 70.8604 3.21H71.8964V1.46C71.8964 1.17067 72.0411 1.026 72.3304 1.026C72.6104 1.026 72.7504 1.17067 72.7504 1.46V3.21H74.6404C74.9018 3.21 75.0324 3.322 75.0324 3.546C75.0324 3.77933 74.9018 3.896 74.6404 3.896H72.7504V7.62C72.7504 8.18933 72.8671 8.62333 73.1004 8.922C73.3338 9.22067 73.7211 9.37 74.2624 9.37C74.4491 9.37 74.6031 9.35133 74.7244 9.314C74.8458 9.26733 74.9531 9.244 75.0464 9.244C75.2144 9.244 75.2984 9.36067 75.2984 9.594C75.2984 9.66867 75.2798 9.74333 75.2424 9.818C75.2144 9.88333 75.1584 9.93 75.0744 9.958C74.9718 9.99533 74.8318 10.028 74.6544 10.056C74.4771 10.0933 74.3138 10.112 74.1644 10.112ZM80.4772 10C80.3092 10 80.1832 9.96267 80.0992 9.888C80.0246 9.804 79.9872 9.69667 79.9872 9.566C79.9872 9.41667 80.0572 9.272 80.1972 9.132L83.4732 5.59C83.9679 5.04867 84.3272 4.54933 84.5512 4.092C84.7846 3.62533 84.9012 3.14933 84.9012 2.664C84.9012 2.05733 84.7192 1.59533 84.3552 1.278C83.9912 0.960666 83.4592 0.802 82.7592 0.802C81.8632 0.802 81.0512 1.10533 80.3232 1.712C80.1646 1.83333 80.0292 1.86133 79.9172 1.796C79.8052 1.72133 79.7399 1.60933 79.7212 1.46C79.7026 1.31067 79.7586 1.18467 79.8892 1.082C80.2439 0.764667 80.6779 0.508 81.1912 0.312C81.7139 0.115999 82.2506 0.0179992 82.8012 0.0179992C83.7532 0.0179992 84.4859 0.246666 84.9992 0.704C85.5219 1.152 85.7832 1.79133 85.7832 2.622C85.7832 3.21 85.6386 3.79333 85.3492 4.372C85.0599 4.94133 84.6166 5.54333 84.0192 6.178L81.1212 9.244H85.8672C86.1379 9.244 86.2732 9.36533 86.2732 9.608C86.2732 9.86933 86.1379 10 85.8672 10H80.4772ZM91.2938 10.112C90.1831 10.112 89.3384 9.68267 88.7598 8.824C88.1904 7.96533 87.9058 6.71467 87.9058 5.072C87.9058 3.41067 88.1904 2.15533 88.7598 1.306C89.3384 0.447333 90.1831 0.0179992 91.2938 0.0179992C92.4138 0.0179992 93.2584 0.442666 93.8278 1.292C94.3971 2.14133 94.6818 3.39667 94.6818 5.058C94.6818 6.70067 94.3924 7.956 93.8138 8.824C93.2351 9.68267 92.3951 10.112 91.2938 10.112ZM91.2938 9.342C92.1431 9.342 92.7731 8.992 93.1838 8.292C93.5944 7.592 93.7998 6.514 93.7998 5.058C93.7998 3.58333 93.5944 2.50533 93.1838 1.824C92.7824 1.13333 92.1524 0.787999 91.2938 0.787999C90.4444 0.787999 89.8144 1.13333 89.4038 1.824C88.9931 2.51467 88.7878 3.59267 88.7878 5.058C88.7878 6.514 88.9931 7.592 89.4038 8.292C89.8144 8.992 90.4444 9.342 91.2938 9.342ZM97.6443 10C97.3736 10 97.2383 9.86933 97.2383 9.608C97.2383 9.36533 97.3736 9.244 97.6443 9.244H99.5903V1.152L98.0503 2.202C97.9009 2.30467 97.7656 2.32333 97.6443 2.258C97.5229 2.18333 97.4529 2.076 97.4343 1.936C97.4156 1.78667 97.4856 1.66067 97.6443 1.558L99.5763 0.213999C99.6696 0.157999 99.7536 0.116 99.8283 0.0879999C99.9123 0.0599997 99.9963 0.0459996 100.08 0.0459996C100.183 0.0459996 100.267 0.0786662 100.332 0.143999C100.407 0.209333 100.444 0.307333 100.444 0.438V9.244H102.25C102.521 9.244 102.656 9.36533 102.656 9.608C102.656 9.86933 102.521 10 102.25 10H97.6443ZM107.439 10.112C107 10.112 106.547 10.0187 106.081 9.832C105.614 9.64533 105.213 9.37933 104.877 9.034C104.755 8.93133 104.704 8.80533 104.723 8.656C104.751 8.50667 104.821 8.39933 104.933 8.334C105.054 8.26867 105.189 8.30133 105.339 8.432C105.656 8.74 105.997 8.96867 106.361 9.118C106.725 9.258 107.089 9.328 107.453 9.328C108.414 9.328 109.156 8.964 109.679 8.236C110.201 7.49867 110.463 6.40667 110.463 4.96V4.134C110.285 4.79667 109.945 5.31933 109.441 5.702C108.946 6.07533 108.358 6.262 107.677 6.262C107.089 6.262 106.566 6.13133 106.109 5.87C105.661 5.59933 105.306 5.23067 105.045 4.764C104.793 4.29733 104.667 3.76533 104.667 3.168C104.667 2.552 104.797 2.01067 105.059 1.544C105.329 1.068 105.693 0.694666 106.151 0.424C106.617 0.153333 107.149 0.0179992 107.747 0.0179992C108.895 0.0179992 109.777 0.437999 110.393 1.278C111.009 2.10867 111.317 3.28 111.317 4.792C111.317 6.50933 110.976 7.82533 110.295 8.74C109.613 9.65467 108.661 10.112 107.439 10.112ZM107.817 5.492C108.498 5.492 109.049 5.27267 109.469 4.834C109.898 4.39533 110.113 3.83067 110.113 3.14C110.113 2.44 109.898 1.87067 109.469 1.432C109.049 0.993333 108.498 0.773999 107.817 0.773999C107.145 0.773999 106.594 0.993333 106.165 1.432C105.745 1.87067 105.535 2.44 105.535 3.14C105.535 3.83067 105.745 4.39533 106.165 4.834C106.594 5.27267 107.145 5.492 107.817 5.492ZM117.135 6.64C117.023 6.64 116.929 6.60733 116.855 6.542C116.789 6.46733 116.757 6.37867 116.757 6.276C116.757 6.17333 116.789 6.08933 116.855 6.024C116.929 5.94933 117.023 5.912 117.135 5.912H120.369C120.471 5.912 120.555 5.94933 120.621 6.024C120.695 6.08933 120.733 6.17333 120.733 6.276C120.733 6.37867 120.695 6.46733 120.621 6.542C120.555 6.60733 120.471 6.64 120.369 6.64H117.135ZM126.933 10C126.644 10 126.499 9.85067 126.499 9.552V0.508C126.499 0.209333 126.639 0.0599995 126.919 0.0599995C127.208 0.0599995 127.353 0.209333 127.353 0.508V9.23H132.169C132.449 9.23 132.589 9.356 132.589 9.608C132.589 9.86933 132.449 10 132.169 10H126.933ZM134.257 1.46C133.846 1.46 133.641 1.264 133.641 0.872C133.641 0.489333 133.846 0.298 134.257 0.298C134.668 0.298 134.873 0.489333 134.873 0.872C134.873 1.264 134.668 1.46 134.257 1.46ZM134.257 10.056C133.968 10.056 133.823 9.902 133.823 9.594V3.602C133.823 3.30333 133.968 3.154 134.257 3.154C134.537 3.154 134.677 3.30333 134.677 3.602V9.594C134.677 9.902 134.537 10.056 134.257 10.056ZM137.683 10.084C137.393 10.084 137.249 9.93933 137.249 9.65V3.896H136.255C135.993 3.896 135.863 3.77933 135.863 3.546C135.863 3.322 135.993 3.21 136.255 3.21H137.249V2.874C137.249 1.166 138.065 0.242 139.699 0.102L140.077 0.0739993C140.254 0.0646661 140.366 0.116 140.413 0.228C140.469 0.330666 140.473 0.442666 140.427 0.564C140.38 0.685333 140.291 0.750666 140.161 0.76L139.769 0.802C139.19 0.848667 138.765 1.04 138.495 1.376C138.233 1.70267 138.103 2.17867 138.103 2.804V3.21H139.769C140.03 3.21 140.161 3.322 140.161 3.546C140.161 3.77933 140.03 3.896 139.769 3.896H138.103V9.65C138.103 9.93933 137.963 10.084 137.683 10.084ZM143.645 10.112C142.889 10.112 142.32 9.90667 141.937 9.496C141.564 9.08533 141.377 8.49733 141.377 7.732V3.896H140.341C140.07 3.896 139.935 3.77933 139.935 3.546C139.935 3.322 140.07 3.21 140.341 3.21H141.377V1.46C141.377 1.17067 141.522 1.026 141.811 1.026C142.091 1.026 142.231 1.17067 142.231 1.46V3.21H144.121C144.382 3.21 144.513 3.322 144.513 3.546C144.513 3.77933 144.382 3.896 144.121 3.896H142.231V7.62C142.231 8.18933 142.348 8.62333 142.581 8.922C142.814 9.22067 143.202 9.37 143.743 9.37C143.93 9.37 144.084 9.35133 144.205 9.314C144.326 9.26733 144.434 9.244 144.527 9.244C144.695 9.244 144.779 9.36067 144.779 9.594C144.779 9.66867 144.76 9.74333 144.723 9.818C144.695 9.88333 144.639 9.93 144.555 9.958C144.452 9.99533 144.312 10.028 144.135 10.056C143.958 10.0933 143.794 10.112 143.645 10.112ZM149.888 10.084C149.626 10.084 149.496 9.944 149.496 9.664V0.465999C149.496 0.186 149.622 0.0459996 149.874 0.0459996C149.995 0.0459996 150.088 0.069333 150.154 0.116C150.219 0.162666 150.28 0.237333 150.336 0.339999L154.144 7.564L157.924 0.339999C157.989 0.237333 158.05 0.162666 158.106 0.116C158.171 0.069333 158.264 0.0459996 158.386 0.0459996C158.638 0.0459996 158.764 0.186 158.764 0.465999V9.664C158.764 9.944 158.633 10.084 158.372 10.084C158.101 10.084 157.966 9.944 157.966 9.664V1.796L154.55 8.278C154.494 8.38067 154.438 8.45533 154.382 8.502C154.335 8.53933 154.26 8.558 154.158 8.558C154.046 8.558 153.957 8.53467 153.892 8.488C153.836 8.44133 153.784 8.37133 153.738 8.278L150.28 1.81V9.664C150.28 9.944 150.149 10.084 149.888 10.084ZM164.135 10.112C163.089 10.112 162.263 9.804 161.657 9.188C161.059 8.56267 160.761 7.70867 160.761 6.626C160.761 5.926 160.896 5.31 161.167 4.778C161.437 4.246 161.811 3.83067 162.287 3.532C162.772 3.23333 163.327 3.084 163.953 3.084C164.858 3.084 165.563 3.378 166.067 3.966C166.571 4.554 166.823 5.36133 166.823 6.388C166.823 6.64933 166.692 6.78 166.431 6.78H161.601C161.629 7.62 161.857 8.26867 162.287 8.726C162.725 9.174 163.332 9.398 164.107 9.398C164.452 9.398 164.783 9.356 165.101 9.272C165.427 9.17867 165.745 9.01533 166.053 8.782C166.221 8.67 166.365 8.64667 166.487 8.712C166.608 8.768 166.673 8.866 166.683 9.006C166.701 9.13667 166.631 9.258 166.473 9.37C166.174 9.61267 165.81 9.79933 165.381 9.93C164.961 10.0513 164.545 10.112 164.135 10.112ZM163.967 3.77C163.257 3.77 162.702 3.994 162.301 4.442C161.909 4.88067 161.68 5.45 161.615 6.15H166.053C166.034 5.40333 165.847 4.82 165.493 4.4C165.138 3.98 164.629 3.77 163.967 3.77ZM171.153 10.112C170.537 10.112 170.005 9.972 169.557 9.692C169.109 9.40267 168.759 8.99667 168.507 8.474C168.265 7.942 168.143 7.31667 168.143 6.598C168.143 5.52467 168.414 4.67067 168.955 4.036C169.497 3.40133 170.229 3.084 171.153 3.084C171.695 3.084 172.171 3.21 172.581 3.462C173.001 3.70467 173.314 4.04067 173.519 4.47V0.48C173.519 0.190666 173.659 0.0459996 173.939 0.0459996C174.229 0.0459996 174.373 0.190666 174.373 0.48V9.65C174.373 9.93933 174.233 10.084 173.953 10.084C173.664 10.084 173.519 9.93933 173.519 9.65V8.726C173.314 9.15533 173.001 9.496 172.581 9.748C172.171 9.99067 171.695 10.112 171.153 10.112ZM171.265 9.398C171.956 9.398 172.507 9.15533 172.917 8.67C173.328 8.17533 173.533 7.48467 173.533 6.598C173.533 5.71133 173.328 5.02533 172.917 4.54C172.507 4.05467 171.956 3.812 171.265 3.812C170.575 3.812 170.024 4.05467 169.613 4.54C169.212 5.02533 169.011 5.71133 169.011 6.598C169.011 7.48467 169.212 8.17533 169.613 8.67C170.024 9.15533 170.575 9.398 171.265 9.398ZM177.05 1.46C176.639 1.46 176.434 1.264 176.434 0.872C176.434 0.489333 176.639 0.298 177.05 0.298C177.461 0.298 177.666 0.489333 177.666 0.872C177.666 1.264 177.461 1.46 177.05 1.46ZM177.05 10.056C176.761 10.056 176.616 9.902 176.616 9.594V3.602C176.616 3.30333 176.761 3.154 177.05 3.154C177.33 3.154 177.47 3.30333 177.47 3.602V9.594C177.47 9.902 177.33 10.056 177.05 10.056ZM181.82 10.112C181.362 10.112 180.952 10.0233 180.588 9.846C180.233 9.66867 179.948 9.426 179.734 9.118C179.528 8.81 179.426 8.46467 179.426 8.082C179.426 7.578 179.552 7.186 179.804 6.906C180.056 6.61667 180.48 6.41133 181.078 6.29C181.675 6.16867 182.496 6.108 183.542 6.108H183.976V5.604C183.976 4.97867 183.85 4.526 183.598 4.246C183.346 3.95667 182.944 3.812 182.394 3.812C182.039 3.812 181.694 3.85867 181.358 3.952C181.022 4.04533 180.672 4.19467 180.308 4.4C180.14 4.49333 180.004 4.498 179.902 4.414C179.808 4.32067 179.762 4.204 179.762 4.064C179.771 3.91467 179.85 3.80267 180 3.728C180.382 3.51333 180.779 3.35467 181.19 3.252C181.6 3.14 181.997 3.084 182.38 3.084C183.201 3.084 183.808 3.294 184.2 3.714C184.601 4.134 184.802 4.778 184.802 5.646V9.65C184.802 9.93933 184.671 10.084 184.41 10.084C184.13 10.084 183.99 9.93933 183.99 9.65V8.782C183.803 9.202 183.518 9.52867 183.136 9.762C182.762 9.99533 182.324 10.112 181.82 10.112ZM181.932 9.426C182.333 9.426 182.683 9.33267 182.982 9.146C183.29 8.95 183.532 8.684 183.71 8.348C183.887 8.012 183.976 7.62933 183.976 7.2V6.738H183.556C182.716 6.738 182.058 6.77533 181.582 6.85C181.115 6.92467 180.788 7.05533 180.602 7.242C180.415 7.42867 180.322 7.68533 180.322 8.012C180.322 8.432 180.466 8.77267 180.756 9.034C181.045 9.29533 181.437 9.426 181.932 9.426Z" fill="#0A142F"/>
</svg>
