<svg width="37" height="37" viewBox="0 0 37 37" fill="none" xmlns="http://www.w3.org/2000/svg">
<path opacity="0.1" fill-rule="evenodd" clip-rule="evenodd" d="M18.5 36C28.165 36 36 28.165 36 18.5C36 8.83502 28.165 1 18.5 1C8.83502 1 1 8.83502 1 18.5C1 28.165 8.83502 36 18.5 36Z" stroke="#0A142F" stroke-width="1.5"/>
<path d="M20.0933 14.0208H21.7017C21.8496 14.0208 21.9697 13.9076 21.9697 13.7682V12.2526C21.9697 12.1132 21.8496 12 21.7017 12H20.0933C18.4677 12 17.1445 13.2463 17.1445 14.7786V16.5468H15.2681C15.1201 16.5468 15 16.6599 15 16.7994V18.3149C15 18.4544 15.1201 18.5675 15.2681 18.5675H17.1445V23.8721C17.1445 24.0115 17.2646 24.1247 17.4126 24.1247H19.021C19.169 24.1247 19.2891 24.0115 19.2891 23.8721V18.5675H21.1655C21.2808 18.5675 21.3832 18.4978 21.4202 18.3948L21.9563 16.8792C21.9837 16.8024 21.9697 16.7175 21.9193 16.6513C21.8684 16.5857 21.788 16.5468 21.7017 16.5468H19.2891V14.7786C19.2891 14.3608 19.6499 14.0208 20.0933 14.0208Z" fill="#0A142F"/>
</svg>
