<svg width="59" height="46" viewBox="0 0 59 46" fill="none" xmlns="http://www.w3.org/2000/svg">
<g clip-path="url(#clip0_426_2851)">
<path d="M57.8376 45.3763V45.4946H57.9476C57.9683 45.4949 57.9886 45.4897 58.0066 45.4795C58.0138 45.4744 58.0195 45.4676 58.0234 45.4597C58.0273 45.4518 58.0291 45.4431 58.0287 45.4343C58.0291 45.4256 58.0273 45.4171 58.0234 45.4094C58.0195 45.4016 58.0137 45.3951 58.0066 45.3902C57.9888 45.3795 57.9683 45.3743 57.9476 45.3751H57.8376V45.3763ZM57.9488 45.2927C57.9959 45.2898 58.0426 45.3033 58.0809 45.3311C58.0963 45.3437 58.1085 45.3597 58.1165 45.3779C58.1246 45.3961 58.1282 45.4159 58.1273 45.4358C58.128 45.4528 58.125 45.4699 58.1186 45.4858C58.1122 45.5016 58.1025 45.5159 58.0901 45.5277C58.0606 45.5534 58.0235 45.5689 57.9845 45.5717L58.132 45.7402H58.0184L57.8827 45.5729H57.8387V45.7402H57.7438V45.293H57.9503L57.9488 45.2927ZM57.9193 45.8946C57.9691 45.895 58.0185 45.885 58.0641 45.865C58.1082 45.846 58.1482 45.8188 58.1821 45.7849C58.2161 45.751 58.2433 45.7108 58.2621 45.6666C58.3008 45.5729 58.3008 45.4677 58.2621 45.374C58.243 45.3299 58.2159 45.2898 58.1821 45.2557C58.1482 45.2218 58.1081 45.1946 58.0641 45.1756C58.0182 45.1567 57.9689 45.1473 57.9193 45.1478C57.8688 45.1473 57.8187 45.1568 57.7718 45.1756C57.7268 45.1942 57.6858 45.2214 57.6511 45.2557C57.5989 45.3094 57.5636 45.3772 57.5496 45.4508C57.5356 45.5244 57.5435 45.6005 57.5724 45.6696C57.5903 45.714 57.6171 45.7542 57.6511 45.7878C57.6858 45.8221 57.7268 45.8493 57.7718 45.868C57.8184 45.8879 57.8686 45.898 57.9193 45.8975V45.8946ZM57.9193 45.0402C58.0489 45.0401 58.1734 45.091 58.2659 45.1821C58.3105 45.2258 58.346 45.278 58.3703 45.3355C58.3955 45.3946 58.4085 45.4582 58.4085 45.5225C58.4085 45.5868 58.3955 45.6504 58.3703 45.7095C58.3454 45.7667 58.31 45.8188 58.2659 45.8629C58.2206 45.9064 58.168 45.9415 58.1104 45.9664C58.05 45.9921 57.9849 46.0052 57.9193 46.0048C57.8528 46.0053 57.787 45.9922 57.7258 45.9664C57.6675 45.942 57.6144 45.9069 57.5691 45.8629C57.525 45.8172 57.4901 45.7634 57.4662 45.7045C57.4409 45.6454 57.4279 45.5818 57.4279 45.5175C57.4279 45.4532 57.4409 45.3896 57.4662 45.3305C57.4905 45.2729 57.526 45.2208 57.5706 45.1771C57.6153 45.1323 57.6686 45.0971 57.7272 45.0736C57.7885 45.0478 57.8543 45.0347 57.9208 45.0352L57.9193 45.0402ZM12.7489 43.3128C12.7489 42.4599 13.3064 41.7593 14.2177 41.7593C15.0885 41.7593 15.6762 42.4298 15.6762 43.3128C15.6762 44.1959 15.0885 44.8664 14.2177 44.8664C13.3064 44.8664 12.7489 44.1657 12.7489 43.3128ZM16.6688 43.3128V40.8857H15.616V41.477C15.282 41.04 14.7755 40.766 14.0867 40.766C12.7297 40.766 11.6648 41.8326 11.6648 43.314C11.6648 44.7954 12.7291 45.862 14.0867 45.862C14.7752 45.862 15.282 45.5877 15.616 45.1511V45.7402H16.6677V43.3128H16.6688ZM52.2435 43.3128C52.2435 42.4599 52.801 41.7593 53.7126 41.7593C54.5843 41.7593 55.1711 42.4298 55.1711 43.3128C55.1711 44.1959 54.5843 44.8664 53.7126 44.8664C52.8013 44.8664 52.2435 44.1657 52.2435 43.3128ZM56.1646 43.3128V38.9375H55.1109V41.477C54.7769 41.04 54.2704 40.766 53.5816 40.766C52.2246 40.766 51.1596 41.8326 51.1596 43.314C51.1596 44.7954 52.224 45.862 53.5816 45.862C54.2704 45.862 54.7769 45.5877 55.1109 45.1511V45.7402H56.1646V43.3128ZM29.7362 41.7093C30.4147 41.7093 30.8504 42.1356 30.9616 42.8862H28.4494C28.5618 42.1856 28.9863 41.7093 29.7365 41.7093H29.7362ZM29.7574 40.7633C28.3384 40.7633 27.3458 41.798 27.3458 43.3114C27.3458 44.8542 28.3783 45.8594 29.8279 45.8594C30.5571 45.8594 31.225 45.677 31.8127 45.1794L31.2967 44.3975C30.8908 44.7227 30.3739 44.9051 29.8881 44.9051C29.2096 44.9051 28.5919 44.5902 28.4399 43.7167H32.0351C32.0454 43.5854 32.056 43.453 32.056 43.3111C32.0454 41.7983 31.112 40.763 29.7568 40.763L29.7574 40.7633ZM42.4684 43.3111C42.4684 42.4582 43.0259 41.7575 43.9372 41.7575C44.808 41.7575 45.3956 42.428 45.3956 43.3111C45.3956 44.1941 44.808 44.8646 43.9372 44.8646C43.0259 44.8646 42.4681 44.1639 42.4681 43.3111H42.4684ZM46.388 43.3111V40.8857H45.3358V41.477C45.0006 41.04 44.4953 40.766 43.8065 40.766C42.4495 40.766 41.3845 41.8326 41.3845 43.314C41.3845 44.7954 42.4489 45.862 43.8065 45.862C44.4953 45.862 45.0006 45.5877 45.3358 45.1511V45.7402H46.3883V43.3128L46.388 43.3111ZM36.5226 43.3111C36.5226 44.783 37.5451 45.8591 39.1057 45.8591C39.8349 45.8591 40.3208 45.6965 40.8462 45.2805L40.3405 44.4277C39.9452 44.7123 39.5302 44.8646 39.072 44.8646C38.2316 44.8542 37.6135 44.2452 37.6135 43.3111C37.6135 42.3769 38.2316 41.7682 39.072 41.7575C39.529 41.7575 39.944 41.9098 40.3405 42.1945L40.8462 41.3416C40.3199 40.9256 39.834 40.763 39.1057 40.763C37.5451 40.763 36.5226 41.8388 36.5226 43.3111ZM50.0956 40.763C49.4882 40.763 49.0926 41.0477 48.8191 41.474V40.8857H47.7757V45.7376H48.8297V43.0178C48.8297 42.2149 49.174 41.7688 49.8622 41.7688C50.0876 41.7655 50.3114 41.807 50.5207 41.8908L50.8452 40.8963C50.6121 40.8044 50.3083 40.7639 50.095 40.7639L50.0956 40.763ZM21.8741 41.2715C21.3676 40.9368 20.6696 40.7639 19.8997 40.7639C18.6731 40.7639 17.8834 41.3531 17.8834 42.3171C17.8834 43.1083 18.4713 43.5963 19.5539 43.7486L20.0513 43.8195C20.6286 43.9008 20.9012 44.0531 20.9012 44.3271C20.9012 44.7023 20.5177 44.9163 19.7976 44.9163C19.0684 44.9163 18.5421 44.6828 18.1872 44.4087L17.6925 45.2315C18.2698 45.6578 18.999 45.8612 19.7888 45.8612C21.1871 45.8612 21.9974 45.2013 21.9974 44.2775C21.9974 43.4246 21.3596 42.9785 20.3059 42.8262L19.8097 42.7541C19.3539 42.695 18.9887 42.603 18.9887 42.2778C18.9887 41.9231 19.333 41.7096 19.9106 41.7096C20.5286 41.7096 21.1269 41.9432 21.4201 42.1256L21.8759 41.2727L21.8741 41.2715ZM35.4592 40.7648C34.8517 40.7648 34.4562 41.0495 34.1839 41.4758V40.8857H33.1405V45.7376H34.1933V43.0178C34.1933 42.2149 34.5376 41.7688 35.2258 41.7688C35.4512 41.7655 35.675 41.807 35.8843 41.8908L36.2088 40.8963C35.9757 40.8044 35.6718 40.7639 35.4586 40.7639L35.4592 40.7648ZM26.4746 40.8857H24.753V39.4138H23.6887V40.8857H22.7066V41.8501H23.6887V44.0634C23.6887 45.1892 24.1247 45.8597 25.3702 45.8597C25.8271 45.8597 26.3534 45.7178 26.6873 45.4845L26.3832 44.5811C26.069 44.7635 25.7247 44.8554 25.451 44.8554C24.9247 44.8554 24.753 44.5302 24.753 44.0433V41.8509H26.4746V40.8857ZM10.7337 45.7388V42.6938C10.7337 41.547 10.0045 40.7754 8.82892 40.7651C8.21089 40.7547 7.5734 40.9475 7.12706 41.6283C6.79312 41.0903 6.26684 40.7651 5.52698 40.7651C5.00985 40.7651 4.50451 40.9173 4.10892 41.4855V40.8857H3.05518V45.7376H4.11718V43.0474C4.11718 42.2051 4.58328 41.7575 5.30308 41.7575C6.00223 41.7575 6.35593 42.2143 6.35593 43.0367V45.737H7.42029V43.0468C7.42029 42.2045 7.90616 41.7569 8.60501 41.7569C9.32393 41.7569 9.66701 42.2137 9.66701 43.0361V45.7364L10.7337 45.7388Z" fill="#231F20"/>
<path d="M58.438 29.5992V28.8896H58.2536L58.0404 29.3765L57.8283 28.8896H57.6433V29.5992H57.7743V29.0647L57.9737 29.5258H58.1094L58.3088 29.0635V29.5992H58.4386H58.438ZM57.2683 29.5992V29.0112H57.5043V28.8914H56.9014V29.0112H57.1374V29.5992H57.2672H57.2683Z" fill="#F79410"/>
<path d="M37.4817 32.642H21.5264V3.90674H37.482L37.4817 32.642Z" fill="#FF5F00"/>
<path d="M22.538 18.2745C22.538 12.4455 25.2614 7.2531 29.5024 3.90687C26.2922 1.37021 22.3217 -0.0065217 18.2337 -0.000468405C8.16324 -0.000468405 0 8.18138 0 18.2745C0 28.3676 8.16324 36.5494 18.2337 36.5494C22.3218 36.5555 26.2924 35.1788 29.5027 32.6421C25.262 29.2964 22.538 24.1037 22.538 18.2745Z" fill="#EB001B"/>
<path d="M59.0075 18.275C59.0075 28.3681 50.8443 36.5499 40.7739 36.5499C36.6853 36.5559 32.7143 35.1792 29.5034 32.6426C33.7455 29.2963 36.469 24.1042 36.469 18.275C36.469 12.4457 33.7455 7.25359 29.5034 3.90736C32.7142 1.37077 36.6851 -0.00592732 40.7736 1.91833e-05C50.844 1.91833e-05 59.0073 8.18187 59.0073 18.275" fill="#F79E1B"/>
</g>
<defs>
<clipPath id="clip0_426_2851">
<rect width="59" height="46" fill="white"/>
</clipPath>
</defs>
</svg>
