<svg width="108" height="108" viewBox="0 0 108 108" fill="none" xmlns="http://www.w3.org/2000/svg">
<path d="M47.9565 68.2535H40.54L45.1752 39.7668H52.5925L47.9565 68.2535ZM34.3007 39.7668L27.2301 59.3602L26.3934 55.141L26.3942 55.1425L23.8986 42.3317C23.8986 42.3317 23.5969 39.7668 20.3805 39.7668H8.69136L8.5542 40.2492C8.5542 40.2492 12.1287 40.9929 16.3121 43.5052L22.7556 68.2543H30.4831L42.2827 39.7668H34.3007ZM92.6357 68.2535H99.4457L93.5082 39.7661H87.5463C84.7932 39.7661 84.1226 41.889 84.1226 41.889L73.0614 68.2535H80.7927L82.3388 64.0221H91.767L92.6357 68.2535ZM84.4747 58.1768L88.3716 47.5164L90.5638 58.1768H84.4747ZM73.6413 46.6172L74.6997 40.4999C74.6997 40.4999 71.4338 39.2578 68.0292 39.2578C64.3487 39.2578 55.6085 40.8664 55.6085 48.6883C55.6085 56.0478 65.8666 56.1392 65.8666 60.0048C65.8666 63.8705 56.6654 63.1778 53.6289 60.7402L52.5263 67.1364C52.5263 67.1364 55.8379 68.745 60.8976 68.745C65.9588 68.745 73.5941 66.1245 73.5941 58.9921C73.5941 51.5855 63.2438 50.8959 63.2438 47.6756C63.2446 44.4547 70.4676 44.8684 73.6413 46.6172Z" fill="#2566AF"/>
<path d="M26.3942 55.1418L23.8986 42.331C23.8986 42.331 23.5969 39.7661 20.3805 39.7661H8.69136L8.5542 40.2485C8.5542 40.2485 14.1724 41.4128 19.5613 45.7752C24.714 49.9449 26.3942 55.1418 26.3942 55.1418Z" fill="#E6A540"/>
</svg>
