<svg width="86" height="62" viewBox="0 0 86 62" fill="none" xmlns="http://www.w3.org/2000/svg">
<path fill-rule="evenodd" clip-rule="evenodd" d="M27.643 30.8386C27.643 28.5499 27.8332 27.0974 32.5294 23.5592C36.4173 20.6298 48.8797 10.6196 48.8797 10.6196V27.3299H58.3569V51.3801H30.6031C28.9751 51.3801 27.6426 50.0352 27.6426 48.3919L27.643 30.8388V30.8386Z" fill="#FFCF01"/>
<path fill-rule="evenodd" clip-rule="evenodd" d="M48.88 27.3301V37.0125L31.4648 48.987L53.4832 41.7562V27.3301H48.88Z" fill="#D3AC06"/>
<path fill-rule="evenodd" clip-rule="evenodd" d="M40.9217 26.8292C41.9402 25.6044 43.4276 25.1721 44.2443 25.8637C45.061 26.5555 44.8977 28.1092 43.8792 29.334C42.8615 30.5587 41.3736 30.9905 40.5569 30.2988C39.7402 29.6072 39.9039 28.0537 40.9217 26.8291V26.8292Z" fill="#231F20"/>
</svg>
