<svg width="12" height="12" viewBox="0 0 12 12" fill="none" xmlns="http://www.w3.org/2000/svg">
<path d="M1.48346 2.9671C2.30275 2.9671 2.96692 2.30289 2.96692 1.48355C2.96692 0.664208 2.30275 0 1.48346 0C0.664167 0 0 0.664208 0 1.48355C0 2.30289 0.664167 2.9671 1.48346 2.9671Z" fill="#0A142F"/>
<path d="M2.7199 3.95801H0.247264C0.110774 3.95801 0 4.06878 0 4.20527V11.623C0 11.7595 0.110774 11.8703 0.247264 11.8703H2.7199C2.85639 11.8703 2.96716 11.7595 2.96716 11.623V4.20527C2.96716 4.06878 2.85639 3.95801 2.7199 3.95801Z" fill="#0A142F"/>
<path d="M10.088 3.5464C9.03124 3.18442 7.7094 3.50239 6.91669 4.07257C6.8895 3.96625 6.79257 3.88712 6.67735 3.88712H4.20478C4.06829 3.88712 3.95752 3.99789 3.95752 4.13438V11.5521C3.95752 11.6886 4.06829 11.7994 4.20478 11.7994H6.67735C6.81384 11.7994 6.92461 11.6886 6.92461 11.5521V6.22124C7.32417 5.87706 7.83896 5.76727 8.26029 5.94629C8.66876 6.11887 8.90266 6.5402 8.90266 7.10148V11.5521C8.90266 11.6886 9.01344 11.7994 9.14992 11.7994H11.6225C11.759 11.7994 11.8698 11.6886 11.8698 11.5521V6.6035C11.8416 4.57153 10.8857 3.81937 10.088 3.5464Z" fill="#0A142F"/>
</svg>
