<svg width="92" height="27" viewBox="0 0 92 27" fill="none" xmlns="http://www.w3.org/2000/svg">
<path d="M5.016 12.12C4.168 12.12 3.4 11.936 2.712 11.568C2.032 11.192 1.496 10.676 1.104 10.02C0.72 9.364 0.528 8.624 0.528 7.8C0.528 6.976 0.724 6.236 1.116 5.58C1.508 4.924 2.044 4.412 2.724 4.044C3.412 3.668 4.18 3.48 5.028 3.48C5.716 3.48 6.344 3.6 6.912 3.84C7.48 4.08 7.96 4.428 8.352 4.884L7.344 5.832C6.736 5.176 5.988 4.848 5.1 4.848C4.524 4.848 4.008 4.976 3.552 5.232C3.096 5.48 2.74 5.828 2.484 6.276C2.228 6.724 2.1 7.232 2.1 7.8C2.1 8.368 2.228 8.876 2.484 9.324C2.74 9.772 3.096 10.124 3.552 10.38C4.008 10.628 4.524 10.752 5.1 10.752C5.988 10.752 6.736 10.42 7.344 9.756L8.352 10.716C7.96 11.172 7.476 11.52 6.9 11.76C6.332 12 5.704 12.12 5.016 12.12ZM13.4002 12.12C12.2402 12.12 11.3362 11.796 10.6882 11.148C10.0402 10.492 9.71616 9.556 9.71616 8.34V3.6H11.2762V8.28C11.2762 9.928 11.9882 10.752 13.4122 10.752C14.8282 10.752 15.5362 9.928 15.5362 8.28V3.6H17.0722V8.34C17.0722 9.556 16.7482 10.492 16.1002 11.148C15.4602 11.796 14.5602 12.12 13.4002 12.12ZM21.8609 12.12C21.2129 12.12 20.5849 12.028 19.9769 11.844C19.3769 11.66 18.9009 11.416 18.5489 11.112L19.0889 9.9C19.4329 10.172 19.8529 10.396 20.3489 10.572C20.8529 10.74 21.3569 10.824 21.8609 10.824C22.4849 10.824 22.9489 10.724 23.2529 10.524C23.5649 10.324 23.7209 10.06 23.7209 9.732C23.7209 9.492 23.6329 9.296 23.4569 9.144C23.2889 8.984 23.0729 8.86 22.8089 8.772C22.5449 8.684 22.1849 8.584 21.7289 8.472C21.0889 8.32 20.5689 8.168 20.1689 8.016C19.7769 7.864 19.4369 7.628 19.1489 7.308C18.8689 6.98 18.7289 6.54 18.7289 5.988C18.7289 5.524 18.8529 5.104 19.1009 4.728C19.3569 4.344 19.7369 4.04 20.2409 3.816C20.7529 3.592 21.3769 3.48 22.1129 3.48C22.6249 3.48 23.1289 3.544 23.6249 3.672C24.1209 3.8 24.5489 3.984 24.9089 4.224L24.4169 5.436C24.0489 5.22 23.6649 5.056 23.2649 4.944C22.8649 4.832 22.4769 4.776 22.1009 4.776C21.4849 4.776 21.0249 4.88 20.7209 5.088C20.4249 5.296 20.2769 5.572 20.2769 5.916C20.2769 6.156 20.3609 6.352 20.5289 6.504C20.7049 6.656 20.9249 6.776 21.1889 6.864C21.4529 6.952 21.8129 7.052 22.2689 7.164C22.8929 7.308 23.4049 7.46 23.8049 7.62C24.2049 7.772 24.5449 8.008 24.8249 8.328C25.1129 8.648 25.2569 9.08 25.2569 9.624C25.2569 10.088 25.1289 10.508 24.8729 10.884C24.6249 11.26 24.2449 11.56 23.7329 11.784C23.2209 12.008 22.5969 12.12 21.8609 12.12ZM28.3906 4.92H25.6066V3.6H32.7346V4.92H29.9506V12H28.3906V4.92ZM37.7122 12.12C36.8562 12.12 36.0842 11.936 35.3962 11.568C34.7082 11.192 34.1682 10.676 33.7762 10.02C33.3842 9.356 33.1882 8.616 33.1882 7.8C33.1882 6.984 33.3842 6.248 33.7762 5.592C34.1682 4.928 34.7082 4.412 35.3962 4.044C36.0842 3.668 36.8562 3.48 37.7122 3.48C38.5682 3.48 39.3402 3.668 40.0282 4.044C40.7162 4.412 41.2562 4.924 41.6482 5.58C42.0402 6.236 42.2362 6.976 42.2362 7.8C42.2362 8.624 42.0402 9.364 41.6482 10.02C41.2562 10.676 40.7162 11.192 40.0282 11.568C39.3402 11.936 38.5682 12.12 37.7122 12.12ZM37.7122 10.752C38.2722 10.752 38.7762 10.628 39.2242 10.38C39.6722 10.124 40.0242 9.772 40.2802 9.324C40.5362 8.868 40.6642 8.36 40.6642 7.8C40.6642 7.24 40.5362 6.736 40.2802 6.288C40.0242 5.832 39.6722 5.48 39.2242 5.232C38.7762 4.976 38.2722 4.848 37.7122 4.848C37.1522 4.848 36.6482 4.976 36.2002 5.232C35.7522 5.48 35.4002 5.832 35.1442 6.288C34.8882 6.736 34.7602 7.24 34.7602 7.8C34.7602 8.36 34.8882 8.868 35.1442 9.324C35.4002 9.772 35.7522 10.124 36.2002 10.38C36.6482 10.628 37.1522 10.752 37.7122 10.752ZM51.6057 12L51.5937 6.432L48.8337 11.04H48.1377L45.3777 6.504V12H43.8897V3.6H45.1737L48.5097 9.168L51.7857 3.6H53.0697L53.0817 12H51.6057ZM62.5551 12.12C61.7071 12.12 60.9391 11.936 60.2511 11.568C59.5711 11.192 59.0351 10.676 58.6431 10.02C58.2591 9.364 58.0671 8.624 58.0671 7.8C58.0671 6.976 58.2631 6.236 58.6551 5.58C59.0471 4.924 59.5831 4.412 60.2631 4.044C60.9511 3.668 61.7191 3.48 62.5671 3.48C63.2551 3.48 63.8831 3.6 64.4511 3.84C65.0191 4.08 65.4991 4.428 65.8911 4.884L64.8831 5.832C64.2751 5.176 63.5271 4.848 62.6391 4.848C62.0631 4.848 61.5471 4.976 61.0911 5.232C60.6351 5.48 60.2791 5.828 60.0231 6.276C59.7671 6.724 59.6391 7.232 59.6391 7.8C59.6391 8.368 59.7671 8.876 60.0231 9.324C60.2791 9.772 60.6351 10.124 61.0911 10.38C61.5471 10.628 62.0631 10.752 62.6391 10.752C63.5271 10.752 64.2751 10.42 64.8831 9.756L65.8911 10.716C65.4991 11.172 65.0151 11.52 64.4391 11.76C63.8711 12 63.2431 12.12 62.5551 12.12ZM72.658 10.056H68.458L67.63 12H66.022L69.802 3.6H71.338L75.13 12H73.498L72.658 10.056ZM72.142 8.832L70.558 5.16L68.986 8.832H72.142ZM79.6543 3.6C80.3823 3.6 81.0143 3.72 81.5503 3.96C82.0943 4.2 82.5103 4.544 82.7983 4.992C83.0863 5.44 83.2303 5.972 83.2303 6.588C83.2303 7.196 83.0863 7.728 82.7983 8.184C82.5103 8.632 82.0943 8.976 81.5503 9.216C81.0143 9.456 80.3823 9.576 79.6543 9.576H77.7583V12H76.1983V3.6H79.6543ZM79.5823 8.256C80.2623 8.256 80.7783 8.112 81.1303 7.824C81.4823 7.536 81.6583 7.124 81.6583 6.588C81.6583 6.052 81.4823 5.64 81.1303 5.352C80.7783 5.064 80.2623 4.92 79.5823 4.92H77.7583V8.256H79.5823ZM87.5093 12.12C86.8613 12.12 86.2333 12.028 85.6253 11.844C85.0253 11.66 84.5493 11.416 84.1973 11.112L84.7373 9.9C85.0813 10.172 85.5013 10.396 85.9973 10.572C86.5013 10.74 87.0053 10.824 87.5093 10.824C88.1333 10.824 88.5973 10.724 88.9013 10.524C89.2133 10.324 89.3693 10.06 89.3693 9.732C89.3693 9.492 89.2813 9.296 89.1053 9.144C88.9373 8.984 88.7213 8.86 88.4573 8.772C88.1933 8.684 87.8333 8.584 87.3773 8.472C86.7373 8.32 86.2173 8.168 85.8173 8.016C85.4253 7.864 85.0853 7.628 84.7973 7.308C84.5173 6.98 84.3773 6.54 84.3773 5.988C84.3773 5.524 84.5013 5.104 84.7493 4.728C85.0053 4.344 85.3853 4.04 85.8893 3.816C86.4013 3.592 87.0253 3.48 87.7613 3.48C88.2733 3.48 88.7773 3.544 89.2733 3.672C89.7693 3.8 90.1973 3.984 90.5573 4.224L90.0653 5.436C89.6973 5.22 89.3133 5.056 88.9133 4.944C88.5133 4.832 88.1253 4.776 87.7493 4.776C87.1333 4.776 86.6733 4.88 86.3693 5.088C86.0733 5.296 85.9253 5.572 85.9253 5.916C85.9253 6.156 86.0093 6.352 86.1773 6.504C86.3533 6.656 86.5733 6.776 86.8373 6.864C87.1013 6.952 87.4613 7.052 87.9173 7.164C88.5413 7.308 89.0533 7.46 89.4533 7.62C89.8533 7.772 90.1933 8.008 90.4733 8.328C90.7613 8.648 90.9053 9.08 90.9053 9.624C90.9053 10.088 90.7773 10.508 90.5213 10.884C90.2733 11.26 89.8933 11.56 89.3813 11.784C88.8693 12.008 88.2453 12.12 87.5093 12.12Z" fill="black"/>
<path d="M8.45 18V25H7.74V19.4L4.99 24.11H4.64L1.89 19.43V25H1.18V18H1.79L4.83 23.19L7.84 18H8.45ZM12.4489 19.7C13.1356 19.7 13.6622 19.8733 14.0289 20.22C14.3956 20.56 14.5789 21.0667 14.5789 21.74V25H13.8989V24.18C13.7389 24.4533 13.5022 24.6667 13.1889 24.82C12.8822 24.9733 12.5156 25.05 12.0889 25.05C11.5022 25.05 11.0356 24.91 10.6889 24.63C10.3422 24.35 10.1689 23.98 10.1689 23.52C10.1689 23.0733 10.3289 22.7133 10.6489 22.44C10.9756 22.1667 11.4922 22.03 12.1989 22.03H13.8689V21.71C13.8689 21.2567 13.7422 20.9133 13.4889 20.68C13.2356 20.44 12.8656 20.32 12.3789 20.32C12.0456 20.32 11.7256 20.3767 11.4189 20.49C11.1122 20.5967 10.8489 20.7467 10.6289 20.94L10.3089 20.41C10.5756 20.1833 10.8956 20.01 11.2689 19.89C11.6422 19.7633 12.0356 19.7 12.4489 19.7ZM12.1989 24.49C12.5989 24.49 12.9422 24.4 13.2289 24.22C13.5156 24.0333 13.7289 23.7667 13.8689 23.42V22.56H12.2189C11.3189 22.56 10.8689 22.8733 10.8689 23.5C10.8689 23.8067 10.9856 24.05 11.2189 24.23C11.4522 24.4033 11.7789 24.49 12.1989 24.49ZM20.189 20.37H17.179V25H16.469V19.74H20.189V20.37ZM23.0251 19.7C23.7117 19.7 24.2384 19.8733 24.6051 20.22C24.9717 20.56 25.1551 21.0667 25.1551 21.74V25H24.4751V24.18C24.3151 24.4533 24.0784 24.6667 23.7651 24.82C23.4584 24.9733 23.0917 25.05 22.6651 25.05C22.0784 25.05 21.6117 24.91 21.2651 24.63C20.9184 24.35 20.7451 23.98 20.7451 23.52C20.7451 23.0733 20.9051 22.7133 21.2251 22.44C21.5517 22.1667 22.0684 22.03 22.7751 22.03H24.4451V21.71C24.4451 21.2567 24.3184 20.9133 24.0651 20.68C23.8117 20.44 23.4417 20.32 22.9551 20.32C22.6217 20.32 22.3017 20.3767 21.9951 20.49C21.6884 20.5967 21.4251 20.7467 21.2051 20.94L20.8851 20.41C21.1517 20.1833 21.4717 20.01 21.8451 19.89C22.2184 19.7633 22.6117 19.7 23.0251 19.7ZM22.7751 24.49C23.1751 24.49 23.5184 24.4 23.8051 24.22C24.0917 24.0333 24.3051 23.7667 24.4451 23.42V22.56H22.7951C21.8951 22.56 21.4451 22.8733 21.4451 23.5C21.4451 23.8067 21.5617 24.05 21.7951 24.23C22.0284 24.4033 22.3551 24.49 22.7751 24.49ZM29.4977 22.26C29.8711 22.3467 30.1577 22.4967 30.3577 22.71C30.5644 22.9233 30.6677 23.1833 30.6677 23.49C30.6677 23.7967 30.5611 24.07 30.3477 24.31C30.1411 24.55 29.8577 24.7367 29.4977 24.87C29.1377 24.9967 28.7411 25.06 28.3077 25.06C27.9277 25.06 27.5544 25.0067 27.1877 24.9C26.8211 24.7867 26.5011 24.6233 26.2277 24.41L26.4677 23.88C26.7077 24.06 26.9877 24.2 27.3077 24.3C27.6277 24.4 27.9511 24.45 28.2777 24.45C28.7644 24.45 29.1611 24.36 29.4677 24.18C29.7811 23.9933 29.9377 23.7433 29.9377 23.43C29.9377 23.15 29.8111 22.9333 29.5577 22.78C29.3044 22.62 28.9577 22.54 28.5177 22.54H27.6177V22.02H28.4777C28.8711 22.02 29.1877 21.9467 29.4277 21.8C29.6677 21.6467 29.7877 21.4433 29.7877 21.19C29.7877 20.91 29.6511 20.69 29.3777 20.53C29.1111 20.37 28.7611 20.29 28.3277 20.29C27.7611 20.29 27.2011 20.4333 26.6477 20.72L26.4477 20.17C27.0744 19.8433 27.7244 19.68 28.3977 19.68C28.7977 19.68 29.1577 19.74 29.4777 19.86C29.8044 19.9733 30.0577 20.1367 30.2377 20.35C30.4244 20.5633 30.5177 20.81 30.5177 21.09C30.5177 21.3567 30.4244 21.5933 30.2377 21.8C30.0577 22.0067 29.8111 22.16 29.4977 22.26ZM32.2795 19.74H32.9895V23.92L36.4995 19.74H37.1295V25H36.4195V20.82L32.9195 25H32.2795V19.74ZM39.1643 19.74H39.8743V22.07H43.1843V19.74H43.8943V25H43.1843V22.68H39.8743V25H39.1643V19.74ZM50.4395 22.66H49.2395V25H48.5295V19.74H49.2395V22.05H50.4495L52.2995 19.74H53.0695L50.9995 22.29L53.2195 25H52.3795L50.4395 22.66ZM58.7545 22.59H54.3545C54.3945 23.1367 54.6045 23.58 54.9845 23.92C55.3645 24.2533 55.8445 24.42 56.4245 24.42C56.7512 24.42 57.0512 24.3633 57.3245 24.25C57.5979 24.13 57.8345 23.9567 58.0345 23.73L58.4345 24.19C58.2012 24.47 57.9079 24.6833 57.5545 24.83C57.2079 24.9767 56.8245 25.05 56.4045 25.05C55.8645 25.05 55.3845 24.9367 54.9645 24.71C54.5512 24.4767 54.2279 24.1567 53.9945 23.75C53.7612 23.3433 53.6445 22.8833 53.6445 22.37C53.6445 21.8567 53.7545 21.3967 53.9745 20.99C54.2012 20.5833 54.5079 20.2667 54.8945 20.04C55.2879 19.8133 55.7279 19.7 56.2145 19.7C56.7012 19.7 57.1379 19.8133 57.5245 20.04C57.9112 20.2667 58.2145 20.5833 58.4345 20.99C58.6545 21.39 58.7645 21.85 58.7645 22.37L58.7545 22.59ZM56.2145 20.31C55.7079 20.31 55.2812 20.4733 54.9345 20.8C54.5945 21.12 54.4012 21.54 54.3545 22.06H58.0845C58.0379 21.54 57.8412 21.12 57.4945 20.8C57.1545 20.4733 56.7279 20.31 56.2145 20.31ZM65.0562 19.74V25H64.3462V20.37H61.0462V25H60.3362V19.74H65.0562ZM69.2445 25.05C68.7378 25.05 68.2811 24.9367 67.8745 24.71C67.4678 24.4767 67.1478 24.1567 66.9145 23.75C66.6811 23.3433 66.5645 22.8833 66.5645 22.37C66.5645 21.8567 66.6811 21.3967 66.9145 20.99C67.1478 20.5833 67.4678 20.2667 67.8745 20.04C68.2811 19.8133 68.7378 19.7 69.2445 19.7C69.7511 19.7 70.2078 19.8133 70.6145 20.04C71.0211 20.2667 71.3378 20.5833 71.5645 20.99C71.7978 21.3967 71.9145 21.8567 71.9145 22.37C71.9145 22.8833 71.7978 23.3433 71.5645 23.75C71.3378 24.1567 71.0211 24.4767 70.6145 24.71C70.2078 24.9367 69.7511 25.05 69.2445 25.05ZM69.2445 24.42C69.6178 24.42 69.9511 24.3367 70.2445 24.17C70.5445 23.9967 70.7778 23.7533 70.9445 23.44C71.1111 23.1267 71.1945 22.77 71.1945 22.37C71.1945 21.97 71.1111 21.6133 70.9445 21.3C70.7778 20.9867 70.5445 20.7467 70.2445 20.58C69.9511 20.4067 69.6178 20.32 69.2445 20.32C68.8711 20.32 68.5345 20.4067 68.2345 20.58C67.9411 20.7467 67.7078 20.9867 67.5345 21.3C67.3678 21.6133 67.2845 21.97 67.2845 22.37C67.2845 22.77 67.3678 23.1267 67.5345 23.44C67.7078 23.7533 67.9411 23.9967 68.2345 24.17C68.5345 24.3367 68.8711 24.42 69.2445 24.42ZM75.3419 22.66H74.1419V25H73.4319V19.74H74.1419V22.05H75.3519L77.2019 19.74H77.9719L75.9019 22.29L78.1219 25H77.2819L75.3419 22.66Z" fill="black"/>
</svg>
