<svg width="7" height="13" viewBox="0 0 7 13" fill="none" xmlns="http://www.w3.org/2000/svg">
<path d="M5.09327 2.02078H6.70167C6.84964 2.02078 6.96973 1.90762 6.96973 1.76818V0.252598C6.96973 0.113164 6.84964 0 6.70167 0H5.09327C3.46771 0 2.14453 1.24632 2.14453 2.77858V4.54676H0.268067C0.120094 4.54676 0 4.65992 0 4.79936V6.31495C0 6.45438 0.120094 6.56754 0.268067 6.56754H2.14453V11.8721C2.14453 12.0115 2.26463 12.1247 2.4126 12.1247H4.021C4.16897 12.1247 4.28907 12.0115 4.28907 11.8721V6.56754H6.16553C6.2808 6.56754 6.3832 6.49783 6.4202 6.39477L6.95633 4.87918C6.98367 4.80239 6.96973 4.71752 6.91934 4.65134C6.8684 4.58566 6.78798 4.54676 6.70167 4.54676H4.28907V2.77858C4.28907 2.36078 4.64988 2.02078 5.09327 2.02078Z" fill="#0A142F"/>
</svg>
